<svg width="93" height="17" viewBox="0 0 93 17" fill="none" xmlns="http://www.w3.org/2000/svg">
<path d="M2.75 17V0.0898438H0.640625V17H2.75ZM8.47719 17V3.76953H8.58266L17.8405 17H19.8913V0.0898438H17.8053V13.3672H17.6998L8.44203 0.0898438H6.39125V17H8.47719ZM25.6419 17V9.67578H33.1302V7.80078H25.6419V1.98828H33.7981V0.0898438H23.5325V17H25.6419ZM38.6816 17V0.0898438H36.5722V17H38.6816ZM44.4087 17V3.76953H44.5142L53.772 17H55.8228V0.0898438H53.7369V13.3672H53.6314L44.3736 0.0898438H42.3228V17H44.4087ZM61.5734 17V0.0898438H59.4641V17H61.5734ZM71.6014 17V1.98828H76.9334V0.0898438H64.16V1.98828H69.492V17H71.6014ZM86.2817 17V9.72266L92.2817 0.0898438H89.8794L85.2622 7.68359H85.1919L80.5747 0.0898438H78.1723L84.1723 9.72266V17H86.2817Z" fill="black"/>
</svg>
