<svg width="184" height="35" viewBox="0 0 184 35" fill="none" xmlns="http://www.w3.org/2000/svg">
<path d="M4.61914 34.0195V0.199219H0.400391V34.0195H4.61914ZM16.0735 34.0195V7.55859H16.2845L34.8001 34.0195H38.9016V0.199219H34.7298V26.7539H34.5188L16.0032 0.199219H11.9016V34.0195H16.0735ZM50.4029 34.0195V19.3711H65.3795V15.6211H50.4029V3.99609H66.7154V0.199219H46.1841V34.0195H50.4029ZM76.4823 34.0195V0.199219H72.2635V34.0195H76.4823ZM87.9366 34.0195V7.55859H88.1476L106.663 34.0195H110.765V0.199219H106.593V26.7539H106.382L87.8663 0.199219H83.7648V34.0195H87.9366ZM122.266 34.0195V0.199219H118.047V34.0195H122.266ZM142.322 34.0195V3.99609H152.986V0.199219H127.439V3.99609H138.103V34.0195H142.322ZM171.683 34.0195V19.4648L183.683 0.199219H178.878L169.644 15.3867H169.503L160.269 0.199219H155.464L167.464 19.4648V34.0195H171.683Z" fill="white"/>
</svg>
