<svg width="284" height="45" viewBox="0 0 284 45" fill="none" xmlns="http://www.w3.org/2000/svg">
<path d="M39.0429 8.58203C40.0738 9.92591 40.9328 11.3998 41.663 12.9605L21.819 27.7432L13.4863 22.4543V16.1251L21.7761 21.3706L39.0429 8.58203Z" fill="#787878"/>
<path d="M5.02542 22.0177C5.02542 21.7142 5.02542 21.4541 5.06837 21.1507L0.0429523 20.8906C0.0429523 21.2374 0 21.6275 0 21.9743C0 28.043 2.44828 33.5481 6.39989 37.5361L9.96494 33.9383C6.91532 30.9039 5.02542 26.6992 5.02542 22.0177Z" fill="#787878"/>
<path d="M21.7763 5.11808C22.077 5.11808 22.3347 5.11808 22.6354 5.16144L22.8931 0.0873139C22.5494 0.0873139 22.1629 0.0439453 21.8193 0.0439453C15.806 0.0439453 10.351 2.51596 6.39941 6.50587L9.96445 10.1055C12.9711 7.0263 17.1804 5.11808 21.7763 5.11808Z" fill="#787878"/>
<path d="M21.7769 38.9273C21.4762 38.9273 21.2185 38.9273 20.9178 38.884L20.6601 43.9586C21.0037 43.9586 21.3903 44.002 21.7339 44.002C27.7472 44.002 33.2022 41.5297 37.1538 37.5394L33.5887 33.9395C30.5821 37.0623 26.4157 38.9273 21.7769 38.9273Z" fill="#787878"/>
<path d="M31.2269 8.06445L35.4792 4.89937C31.7423 1.86436 26.9746 0 21.7774 0V5.0728C25.2995 5.11616 28.5638 6.20009 31.2269 8.06445Z" fill="#787878"/>
<path d="M43.5965 22.0184C43.5965 20.6745 43.4677 19.3738 43.2529 18.0732L38.5711 21.5849C38.5711 21.7149 38.5711 21.8884 38.5711 22.0184C38.5711 27.0041 36.4235 31.4695 33.0303 34.5476L36.4235 38.3193C40.8046 34.3308 43.5965 28.4781 43.5965 22.0184Z" fill="#787878"/>
<path d="M21.777 38.931C16.8375 38.931 12.4134 36.7632 9.36381 33.3379L5.62695 36.7632C9.62152 41.229 15.3771 44.0039 21.777 44.0039V38.931Z" fill="#787878"/>
<path d="M10.5663 9.49168L7.17303 5.71973C2.74894 9.75181 0 15.5615 0 22.0215H5.02541C5.02541 17.0789 7.17303 12.5699 10.5663 9.49168Z" fill="#787878"/>
<path d="M127.011 13.1773L132.939 8.75488H113.095V35.2461H132.939V30.8237H118.764V24.06H130.877V19.6375H118.764V13.1773H127.011Z" fill="#787878"/>
<path d="M98.1026 19.0739H91.2302V13.1773H102.226L108.153 8.75488H85.5605V35.2461H97.3724C103.987 35.2461 107.81 32.2111 107.81 26.9215C107.81 21.8487 104.374 19.0739 98.1026 19.0739ZM97.1576 30.8237H91.2302V23.4963H97.1576C100.766 23.4963 102.441 24.7103 102.441 27.1817C102.441 29.653 100.637 30.8237 97.1576 30.8237Z" fill="#787878"/>
<path d="M149.002 8.75488H138.221V35.2461H143.89V27.7453H149.045C155.917 27.7453 160.212 24.1033 160.212 18.2501C160.212 12.3969 155.917 8.75488 149.002 8.75488ZM148.873 23.3229H143.847V13.1773H148.873C152.524 13.1773 154.5 14.9983 154.5 18.2501C154.5 21.5019 152.524 23.3229 148.873 23.3229Z" fill="#787878"/>
<path d="M75.8537 29.5201C74.3503 30.3438 72.6752 30.7774 70.9571 30.7774C65.8458 30.7774 62.1519 27.0921 62.1519 22.0193C62.1519 16.9466 65.8458 13.2612 70.9571 13.2612C72.8041 13.2179 74.6081 13.8249 76.1114 14.9088L80.1918 11.8738L79.9341 11.6137C77.5718 9.4892 74.3933 8.40527 70.7853 8.40527C66.8767 8.40527 63.3116 9.74934 60.7345 12.1773C58.1574 14.692 56.697 18.2039 56.7829 21.8459C56.7399 25.5312 58.1574 29.0865 60.7345 31.6879C63.4405 34.246 67.0485 35.6767 70.7424 35.59C74.8228 35.59 78.3879 34.1592 80.7932 31.5578L77.1422 28.8264L75.8537 29.5201Z" fill="#787878"/>
<path d="M228.377 8.79823V35.2842H234.047V24.447H246.116V35.2842H251.786V8.79823H246.116V19.6787H234.047V8.79823H228.377ZM218.627 35.2842H224.597L213.515 8.79823H207.76L196.463 35.2842H202.176L204.452 29.9523H216.479L218.627 35.2842ZM206.171 25.5308L210.552 14.9104L214.675 25.5308H206.171ZM264.5 24.5771H268.022L276.698 35.2408H284L272.403 21.5427L282.54 8.75488H276.054L267.635 20.1122H264.5V8.75488H258.83V35.2408H264.5V24.5771ZM177.736 19.1152V13.2198H192.555V8.79823H172.066V35.2842H183.878C190.493 35.2842 194.316 32.2498 194.316 26.9613C194.316 21.8895 190.88 19.1152 184.609 19.1152H177.736ZM177.736 30.8626V23.5367H183.664C187.272 23.5367 188.947 24.7505 188.947 27.2214C188.947 29.6922 187.186 30.906 183.664 30.906H177.736V30.8626Z" fill="#787878"/>
</svg>
